<svg xmlns="http://www.w3.org/2000/svg" viewBox="0 0 845 155" fill="currentColor" role="img" aria-label="MeiGen">
  <title>MeiGen</title>
  <g transform="translate(0,155) scale(0.1,-0.1)">
    <path d="M824 1421 c-55 -14 -98 -48 -130 -103 -18 -29 -96 -168 -174 -308
-79 -140 -159 -284 -180 -320 -228 -396 -237 -417 -206 -481 34 -70 48 -74
263 -74 179 0 193 1 220 21 34 26 33 24 309 520 157 282 224 411 224 433 0 29
-92 212 -129 255 -38 44 -135 72 -197 57z M1786 1419 c-22 -5 -54 -20 -72 -34
-44 -33 -154 -232 -154 -278 0 -25 34 -95 131 -268 115 -205 220 -395 335
-605 53 -97 58 -99 269 -99 202 0 232 7 265 60 40 65 36 78 -178 463 -109 196
-242 437 -296 535 -87 157 -102 180 -139 201 -50 28 -107 37 -161 25z M5441
1126 c-32 -18 -50 -53 -51 -99 0 -49 13 -73 50 -92 95 -49 202 33 170 131 -21
63 -108 94 -169 60z M3352 633 l3 -498 95 0 95 0 5 320 5 320 125 -197 125
-198 44 3 44 2 121 192 c67 106 124 193 128 193 4 0 9 -143 10 -317 l3 -318
75 -3 c41 -2 85 0 97 3 l23 5 0 495 0 495 -100 0 -100 0 -56 -87 c-31 -49 -97
-152 -146 -230 -49 -79 -93 -143 -96 -143 -4 0 -74 104 -157 230 l-150 230
-97 0 -98 0 2 -497z M6146 1114 c-69 -17 -160 -63 -215 -110 -47 -40 -112
-140 -136 -210 -23 -63 -31 -204 -15 -277 62 -303 398 -473 702 -356 65 25
187 113 205 149 9 18 12 74 10 200 l-2 175 -197 3 -198 2 0 -80 0 -80 100 0
100 0 0 -68 c0 -80 -7 -89 -90 -122 -160 -64 -339 0 -412 147 -28 58 -33 77
-33 143 1 175 118 297 296 308 92 5 159 -14 225 -64 24 -19 51 -34 58 -34 17
0 116 108 116 126 0 15 -69 72 -130 107 -96 55 -257 72 -384 41z M4819 840
c-231 -41 -354 -275 -268 -505 26 -71 84 -134 161 -176 62 -33 65 -34 183 -34
110 0 125 2 175 27 30 15 71 41 90 58 l35 31 -57 55 -58 55 -45 -32 c-38 -27
-57 -34 -110 -37 -82 -5 -106 1 -151 40 -31 27 -64 81 -64 103 0 3 120 5 266
5 l267 0 -6 87 c-14 194 -126 311 -313 327 -33 2 -80 1 -105 -4z m176 -180
c29 -27 55 -71 55 -92 0 -10 -36 -13 -165 -13 -183 0 -183 0 -145 62 31 51 83
74 162 70 55 -2 72 -7 93 -27z M7120 836 c-124 -26 -234 -122 -266 -232 -11
-38 -15 -83 -12 -143 5 -148 71 -251 198 -310 49 -23 67 -26 170 -26 104 0
120 3 170 26 30 15 71 40 90 57 l35 31 -56 56 -56 57 -42 -30 c-54 -40 -129
-56 -185 -41 -51 13 -101 50 -121 89 -32 62 -40 60 239 60 l253 0 7 38 c7 46
-6 135 -28 187 -40 95 -130 164 -240 184 -71 13 -85 13 -156 -3z m177 -167
c32 -20 57 -56 65 -92 3 -16 -10 -18 -164 -20 -93 -1 -168 1 -168 6 0 32 57
99 100 116 45 18 130 13 167 -10z M5406 821 c-8 -13 -4 -667 4 -680 4 -8 37
-11 96 -9 l89 3 3 348 2 347 -94 0 c-52 0 -97 -4 -100 -9z M7972 815 c-17 -8
-48 -26 -67 -41 l-35 -26 0 36 0 36 -90 0 -90 0 2 -342 3 -343 50 -3 c28 -2
69 -1 92 3 l42 6 3 224 3 225 31 31 c45 45 104 56 159 29 24 -12 47 -29 52
-38 4 -9 10 -120 13 -247 l5 -230 70 -3 c38 -2 80 0 92 3 l23 5 0 244 c0 188
-3 253 -15 285 -37 105 -121 161 -239 161 -39 -1 -86 -7 -104 -15z M1198 561
c-148 -266 -158 -294 -123 -361 30 -59 58 -65 280 -65 183 0 203 2 235 20 44
26 72 79 67 125 -3 20 -63 140 -142 283 -113 202 -142 247 -159 247 -17 -1
-47 -48 -158 -249z"/>
  </g>
</svg>
